# xmcd
#
# Track frame offsets: 
#        150
#        16141
#        33488
#        57330
#        72257
#        91356
#        106989
#        125558
#        145030
#        162998
#        185878
#
# Disc length: 2743 seconds
#
# Revision: 0
# Processed by: cddbd v1.5PL3 Copyright (c) Steve Scherf et al.
# Submitted via: ExactAudioCopy v0.95a5
#
DISCID=980ab50b
DTITLE=Josh Palmer - Fall In June
DYEAR=2003
DGENRE=Blues
TTITLE0=Died In Your Arms
TTITLE1=If Only You
TTITLE2=It Came From The Waves
TTITLE3=Don't Tell Me
TTITLE4=Life Had Caught Up
TTITLE5=Something More
TTITLE6=Now I Know
TTITLE7=Song For the Stars Above
TTITLE8=Burnin' Bridges
TTITLE9=Outta Reach (Stephanie Chin)
TTITLE10=The Door Song
EXTD=All Songs written by Josh Palmer\n© 2003, Josh Palmer, SOCAN\nMad
EXTD=e In Canada\nRecorded, engineered, mixed and masterd by Glen Ens\n
EXTD=Recorded at Audio ARt Recording Studios, Saskatoon, SK\nJosh Palm
EXTD=er: Guitars, Vocals, Organ and Bass on track 1\nTanya Palmer: Bass 
EXTD=Guitar\nDave Berry: Drums (track 5 ,8 ,9 ,10]\nSimon Tesphae: Dru
EXTD=ms (tracks 1, 2, 3, 4, 6, 7]\nMegan Lane: Additional Vocals (trac
EXTD=ks 5, 8, 10]\n
EXTT0=
EXTT1=
EXTT2=
EXTT3=
EXTT4=
EXTT5=
EXTT6=
EXTT7=
EXTT8=
EXTT9=
EXTT10=
PLAYORDER=
